<mxfile host="app.diagrams.net" modified="2020-07-28T10:12:10.467Z" agent="5.0 (Windows NT 10.0; Win64; x64) AppleWebKit/537.36 (KHTML, like Gecko) Chrome/84.0.4147.105 Safari/537.36" etag="q8zIW1tHSPCWKH55olmQ" version="13.5.4" type="github">
  <diagram id="C5RBs43oDa-KdzZeNtuy" name="Page-1">
    <mxGraphModel dx="1422" dy="882" grid="1" gridSize="10" guides="1" tooltips="1" connect="1" arrows="1" fold="1" page="1" pageScale="1" pageWidth="827" pageHeight="1169" math="0" shadow="0">
      <root>
        <mxCell id="WIyWlLk6GJQsqaUBKTNV-0" />
        <mxCell id="WIyWlLk6GJQsqaUBKTNV-1" parent="WIyWlLk6GJQsqaUBKTNV-0" />
        <mxCell id="WIyWlLk6GJQsqaUBKTNV-2" value="" style="rounded=0;html=1;jettySize=auto;orthogonalLoop=1;fontSize=11;endArrow=block;endFill=0;endSize=8;strokeWidth=1;shadow=0;labelBackgroundColor=none;edgeStyle=orthogonalEdgeStyle;fillColor=#dae8fc;strokeColor=#6c8ebf;entryX=0;entryY=0.5;entryDx=0;entryDy=0;" parent="WIyWlLk6GJQsqaUBKTNV-1" source="WIyWlLk6GJQsqaUBKTNV-3" target="yNAFbRZhFlkog8Pj02Fz-0" edge="1">
          <mxGeometry relative="1" as="geometry" />
        </mxCell>
        <mxCell id="yNAFbRZhFlkog8Pj02Fz-2" value="黑数据" style="edgeLabel;html=1;align=center;verticalAlign=middle;resizable=0;points=[];fontSize=14;" vertex="1" connectable="0" parent="WIyWlLk6GJQsqaUBKTNV-2">
          <mxGeometry x="-0.5678" y="-3" relative="1" as="geometry">
            <mxPoint x="23" y="-15.5" as="offset" />
          </mxGeometry>
        </mxCell>
        <mxCell id="WIyWlLk6GJQsqaUBKTNV-3" value="猎网" style="rounded=1;whiteSpace=wrap;html=1;fontSize=12;glass=0;strokeWidth=1;shadow=0;gradientColor=#97d077;fillColor=#d5e8d4;strokeColor=#82b366;" parent="WIyWlLk6GJQsqaUBKTNV-1" vertex="1">
          <mxGeometry x="110" y="202.5" width="80" height="40" as="geometry" />
        </mxCell>
        <mxCell id="yNAFbRZhFlkog8Pj02Fz-11" style="edgeStyle=orthogonalEdgeStyle;rounded=0;orthogonalLoop=1;jettySize=auto;html=1;entryX=0.5;entryY=1;entryDx=0;entryDy=0;exitX=0.5;exitY=1;exitDx=0;exitDy=0;" edge="1" parent="WIyWlLk6GJQsqaUBKTNV-1" source="WIyWlLk6GJQsqaUBKTNV-7" target="WIyWlLk6GJQsqaUBKTNV-3">
          <mxGeometry relative="1" as="geometry">
            <Array as="points">
              <mxPoint x="595" y="280" />
              <mxPoint x="150" y="280" />
            </Array>
          </mxGeometry>
        </mxCell>
        <mxCell id="yNAFbRZhFlkog8Pj02Fz-17" style="rounded=0;orthogonalLoop=1;jettySize=auto;html=1;fontSize=14;startArrow=classic;startFill=1;" edge="1" parent="WIyWlLk6GJQsqaUBKTNV-1" source="WIyWlLk6GJQsqaUBKTNV-7" target="yNAFbRZhFlkog8Pj02Fz-16">
          <mxGeometry relative="1" as="geometry" />
        </mxCell>
        <mxCell id="WIyWlLk6GJQsqaUBKTNV-7" value="测试用户" style="rounded=1;whiteSpace=wrap;html=1;fontSize=12;glass=0;strokeWidth=1;shadow=0;fillColor=#fff2cc;strokeColor=#d6b656;gradientColor=#ffd966;" parent="WIyWlLk6GJQsqaUBKTNV-1" vertex="1">
          <mxGeometry x="550" y="202.5" width="90" height="40" as="geometry" />
        </mxCell>
        <mxCell id="yNAFbRZhFlkog8Pj02Fz-12" value="" style="edgeStyle=orthogonalEdgeStyle;rounded=0;orthogonalLoop=1;jettySize=auto;html=1;" edge="1" parent="WIyWlLk6GJQsqaUBKTNV-1" source="yNAFbRZhFlkog8Pj02Fz-0" target="WIyWlLk6GJQsqaUBKTNV-7">
          <mxGeometry relative="1" as="geometry" />
        </mxCell>
        <mxCell id="yNAFbRZhFlkog8Pj02Fz-0" value="" style="shape=image;verticalLabelPosition=bottom;labelBackgroundColor=#ffffff;verticalAlign=top;aspect=fixed;imageAspect=0;image=data:image/png,iVBORw0KGgoAAAANSUhEUgAAAT4AAABzCAYAAAABiW42AAAgAElEQVR4Ae2dh5sURfrH71+833lJPRMcioqI7CwLEgVFPJQkgoCCBEkqknPOUUDywhKWzTnN7s6G9/d8qqd6qnu6J2yYnd2pep6aqumuqu56q/vbb6qqv4gNlgKWApYCBUaBvxRYf213LQUsBSwFxAKffQgsBSwFCo4CFvgKbshthy0FLAUs8NlnwFLAUqDgKGCBr+CG3HbYUsBSwAKffQYsBSwFCo4CFvgKbshthy0FLAUs8NlnwFLAUqDgKGCBr+CG3HbYUsBSwAKffQYsBSwFCo4CFvgKbshthy0FLAUKEvja6x9KtPm5dLfXSF9Pp30KLAUsBQqMAoUHfP190lL9pye21z+SWLShwIbedtdSoHApUHDA19fTJS3VtwNjW90D6eluLdynwfbcUqBAKFBwwBfrbJLmqltOrLyZSOP5lqpb0tVWVSDDb7tpKVCYFCg44Is2PZfmyj9UbDJSM8/5aNOzwnwibK8tBQqAAgUGfP2Kw2uquC5OvGGk5L3Rcn4F8AbYLhYkBQoK+LraqqXx5bU42F138xxTx4206eU1aa68If293QX5YNhOWwqMZQoUDPD1xqLS9PK6NJZfDY8v4+dI4/loS/lYHn/bN0uBgqRAQQBfb6xdmitvSmP5FU9seHFZ/SdVsfxKIo2Xba29X5APhu20pcBYpsAYB75+6WyrioPbJQfUXuj0stQ/d/KkZt4FwheXpKX6zlgef9s3S4GCpMCYBL7+vph0tlYqXV7984vSEI86T2rmw85TxnJ8Bfle2E6PcQqMGeDr7+uRrrYaaa25L/XPL0jds/NS/yyRkk+Kz+PHSHWdeKrrd7XXjvFHwHbPUqDwKDCqga+/r1ew1LbU3JUGAOspYHdepWaeY+q4kQJsdU/PKYBUKXlfbKr4o/CeCNtjS4ECoMDoBL7+PmlvLJM6OLqnZ6W2LDjWxY+TmnldXtcldSLgR94BwVi0qQAeAdtFS4HCo8CoBL7m6j+ltuzMsMamypuF9zTYHlsKFAgFRiXw1T49KzVPTkntk9NuauY5N5BotoFxxAZLAUuBsUmBUQl8zVV3pObxyaxjLYD4+KSQmvmgtuw6fWPzgbe9shSAAqMS+FhaCl1czeMTnlhd6vwndeJxIz0uNeq4k5r56lLKJcq2NTyxT4elgKXAGKbAqAQ+xqM72uiA1aNjUhWPgBd5F8h0ntTMu0CnAc9J4QK1iNvfGxOsxjZYClgKjD0KjFrgYyjaG55I1aOjUh2PVQ+dPGlQpJwu480fl5aa+9IXX5AAf8C6sjNSV3ZOYp0tY2/UbY8sBQqcAqMa+ACqqodHpPKBE3WeNJOIZbit/rEgOrOIQUfjM+UDaNaFU+xoel7gj4ntvqXA2KLAqAa+jqYXUvngsFTFY+WDQypPaubN8xgyGl9el9a6RwrQmqtuKx8/yph1dBs6bVZzdvvH1ujb3lgKFCgFRi3wtdc/kcr7B7OKCgDhEO8fUrFC1T8kpE4+kTptU45rOOXrn1+Wvt5YgT4qttuWAmOHAqMS+Fqq70rFvf1Sce+AkR6Qyvv8d1Iz75RzzqXKm3XMvFvn/gGpeXxKerraxs4TYHtiKVCAFMgz4EOUTBX7hPmzDujtl4q7gF88vbtfXt7dp46Rqvy9+DEFkvGyRt4sY+bd9o2y5rGqR0eku6M+zb1asbgA3yfb5VFCgREEvn6R/n7p7+9zYl+vch/BhSQo9vV0S/2zi/Lyzr5EBOz4r0DPAUDyChDj58i7dQBEVd4BRjev29Rl4+25bevzRlpx94B0NL4IvFfP/cf75wD6KHkq7G1aCoxxCowM8MUBr6+vR+nMenu6pTfWJT2xzsAY62qVmsdnpPzuPk98Ef9Paub95Ybzf3P1/cB77o11Si/W4p5u1UcFhv19cS5xjD9VtnuWAnlOgdwDH6DX1+sAXqxTYt0d0t3ZJt3RFumKNktXh45N0tXRJNGWaql8eFzK7+yX8jv7jNTMcy7oPGXMaJbZL+V34/VIVR5g1WWC2o+XV9fS5fZLw4sb6l65X/f+oy3S3dkqsa526emOKhAE6OFwLfeX52+Fvb0xT4EcA18C9HpiUQUMnR2N0tneqLimvt4e6e/rM2IcIOEI8zya944Iz384WAWE0WYFgHCACfAb88+W7aClQN5SILfAByD0OYAANxRta1BcXn//2DUE0Df6CsDD/XnBb2j73dXZIVXPSt3Y2R5sfe6D484g8hHKJNSUP3WvWfvyaWgVaGHeX2ONXQEnlFj2xLBSIKfAh5gH5wYAwOVF2+qVgWNYe5gHjfPC01f6rMAv1qlEfcX9YczRBhD1ARg4GJbdvSFLprzmxvvXzgX2fmXJOLeMWd6fX/rJ67Lz2/nS3RkNbEcf/H72+257a+Z8qA8npbRjXuO31V8mlbEHLAVyQYEcAp8j5sLxwAF1tNZKdwH5wwF47c3VCvyU7q+7Q4nCpgHEEZcdIERczjYMNfBpkHp6L7EEf+XTR/LTlxFPXDb1Py6gLSt6w3POLLthYZFbjra/LRmXVLajzc6NznbcbfnsKZBT4NNiLnqv9uYqxfVkf8ujswacbkv9c9XvaGudAkDogFFHAaFpBImvDJOtIWTL1596gGX955/ItqVz3Hhw83fS1twgW5fMlo2Lpsm3095xywNYHCOumjHBPQ5AtTbhs+iEF4/ueM5pcByqtL25UV/KppYCw0aB3ANfd1Q6O5qkrakybuH09m3TkhmyYXGJ/LAoImu++ERWL/hYvp07SZbP/kCWfPqeLJ42QRZFxssXn7wt8ye/KfMmvS6zJ/5bPn33n1Iy/u8Sefv/pOitv4549PbK+YdezTXeYN3Vbj29McX9Kes2luDuDkcXiLEnCytwJiLskW1r3Fvb8vVMF8R+XDDFPb5jxWfu8bVzvaKrBT6XTDYziimQO+DThg2Ar71R2horlILdT7tNSz6VDYunKeBbu3CqrJ5vAt9EWVxiAt8bMvfD12X2+/+WGRP+ISXjX8lr4PP3Neg/XDEqAEAQqzBzgzMFP5ODC+PA9q5f6l4WjlCX27J4hjre19srK4rfdo/v27DcLU8m1t0ldRXPPXHVzHfd8qtnvec5Z5atKHvoluO625bNTSrLx8EGS4HhpkBugQ8Xj+4OBXytocA3Q36Kc3wA36r5H8vKeR8pju+bGe95gG/Bxw7HNyvO8U0bN/qBTw94rAv/xtaswO/aiX0eYLlwYKe8fPJAlho6OBP4vp810S2/c+UCdWmsrhoMSW+cPqhvKTQ9u3ernPhlvYrn9m0PLdcbi7nlKH/z7OHQsvaEpcBwUmBEgQ9HZn/Qou6PStSd6hN1HY7vK0PUdTi+V0eFqOvva7r/fCRc8HOdn8NrhRk3TOODCXzLI2+6ILd73deq4esnD7jHAD6AMF3o7YnJqV0bZdNXJfLTwkjaiIh99fjedM3a85YCw0aBEQW+ILFm0zeOju/HRcWy5gufqOtyfOOUjg+OD+CD45sxAR3fKyOu29P6xaEaMcfw0aZ0fs6HItzamw3wAVYmZ3doyyp1ywCjPo7Ii+ibLhzbsc6to+tmkt46dzRd0/a8pcCwUGBEgc/RXXn75ej4HOPGWoBvwRTDuJGs48O4oUXdfDJuaABMl8776G1Z980CKb1320uI+D9cXJgKx7S3hL4vsKhkA3y4jZjgdOLXDarRNYZPHoaNP84ckgc3Lkh3V7Av37MHtz3tmG2my6+cPl5ZmYN7Y49aCgwfBfIQ+OIc31dwfOmsum8oq64LfErHN/IW3XRgF3b+8K6tgSOt3F4603N92QBfU22VB7DO798uHa1NnmMmcB3dvs69t9JbV8SJl2XtvEmeOujt6ipfhMbjO3/0lMeJWbf37P4t9xo2YykwnBTIW+DDncVv3FDuLCXvuu4sjqj7msHx5Y9xIwzc0h0P4vwwdAB+ysrb1xO6yEE2wFdTXuYBIK1zMy20JvDhI0hAPWEeN/Om/jDsoe3p7pIf5k8ObAMrsw2WArmgQP4BX1zH5/jxOTo+rLrLZuHHp0VdR8c3f/IbMk+5s7wa1/H9PW90fOkALuw8Yq8/4Pysprt1dzhO3yGzOrIBPr8/3q3zx9Rlu6Id8vDGRfnz4kkxrb7pgA8ROdre6t76lWN7BFFWx9LbV91zcHYmYOq8BT6XRDYzzBTIP+Bb4nVncR2Yw4APB+b3tVV39HN8cz96K2nI4bKY68u0N3aWC9KNUikb4AOINOCQPrh+Iem6Hj+/OMeHA/YvKz/3RGaENNRUeOpfOvybp/1HNy95zpfeuiy71y32tbPSU8b+sRQYLgrkIfDhwKxnbph+fB86HJ8xc8O06jozN/IH+FINWHVFuez4cWUod+qvC9Cpuc1Kzzc0wHf38mkPMJnzcfX1g4CPc8zXffjHpZQRx2cTWE/t2pSyPO3VV5brS9vUUmBYKZCHwJeYsqZmbiyY4jgwGxyf9uNbwJS1uDsLwDfaHJjDwM8/4rixdLTUKJ8+FjUI8n+kjp/ju3P5lNLJBTkw45hsAlNF2QP/ZSUM+PYZLi9mG4PN43Btg6VALigwssAX4sCsZ27gx8fMDT1XNzFzY5wsnMpcXaasvaamrCU4vvyw6mYyeDWV5YFcn7+uC3zRFsOfz19KpL6q3ANm67+YKszNNQHpzJ6fVUW/KIol1h8s8PkpYv+PFQqMLPCpCfheUiZmbhSL9uNbOdeZsrbEdWD2LVIQ1/GNNo6vr68vQ+Drk3Y4PoAvFs7xQUn88UygM/PMqtBr653ZvcVTrrUxsQKLHpEw4AM0f121MGVk0QPz2szqSFcH8dsGS4FcUCDvgG/zkk/dubrKj8/g+IKsunrKmp65kdHqLJP/KZFvxktk4yQp3lMkkf0RiZDumiqRHR9LZNVEicz8jxQNYqWXTAcvyLrrr4tBIVPgwxDC5H8TdMh/N+O/0libWPH46Pa1njJYc/0hDPh0uUc3L8uVY7vdaDo5+zlK07jR0lDr1qF+eek93aRNLQVyQoG8Az6H45smibm6jo7P786ycOo7EmzcCBF1x/2fRP43TooPF0vx9TmZxd+nBnJkQWDlP+YfPWZgEP3BX4///uABvhQ6Pl2v+vkTD6gBfDfPHtGnVeo3PgQt/58K+JjKZq7bxyKjZkgFfLGuTs9agD9/M9OsavOWAsNOgTwFPm3VTTdzI8P1+Oa8IcUnpmcGdhoUL8yUSNG/hxT4/ODS3dUV2L5/1JVVV4u6aYCvt7dHLTzq5/jQ95kcGTMmdBlWQg4KqYDvsc8d5vKRXZ4mUgEfBQ9uWulen/uw+294yGf/DDMF8hD4hnY9vsh372YHeADfqelSNHXgoBfEtQWNY/XLF0nAN/vDN5KKMkc3E6suFf0irAY30n0blqm27109KwChPmcuNopLyd0rZ1Q099LQDsz65mhL1ydFfO3saJOTv21UcevS2Z7zpqhLG0/v3fScv3DQWnQ1bW06/BTIQ+DzOjAPZj0+pcPTHFyGKfq+oonxGSCIxyvfk8jB4iSAChJRzWOZDN29m1eT2l08c3JSVTYnd/z4Wh2rboBRiErMvjDB6OdvZgnOxeYxFh0wZ2RwbuOXxe41rx7f4ymv65rAh4FkReQtt9z25fNUfcBPl/enzMc1A+K7CazmCtBmOZu3FBgOCuQl8OHAnNDxJdxZtHFD+/Gx9Lw2biQtPf/tADi99R9K0TvxpeuLXpXio9McbvHqnCSAMkEuKJ/JYO3dtiGp3bVff5ZUlbm6Ha11alVmpq+FzdxgGpoWYZlCxv4aLD8FAAJEWFUrn5XKpv+VeADq2I4f3GuGAd/BzYlZFfgHmsB2+8JxVT8M+FZ9OkHaW5rca+gMa/iZ7XBvNlgK5IIC+Qd8Q7AeX2TWf6T4WoYGjOtzJHJxlhR9/pYDQm//VSIr3pXiq7MTIvKZGUkAFQR25rFMBm/B1AlJ7Z484NWV0Q5r8iWmrOml6MOvwHLv5v62bU0NwrLvOrDtpLbG3rt6RjA26AD46HM6BehYPVkH5vKy0rKO2iLMvr66jk4xqoRtIISVWbdBCnDbYCmQCwqMLPAFOjAnpqxpPz7twKw5vsRmQ75lqdhs6L+vZGfIOFAsRZP/qQAo8vG/lGuL3+ob2TklCaBMkAvKpxs8VmEJqofezx+cPXkb1CZE6PsGsvWkv03731KgkCkwssAXoKtyHZgHuh7f9xMTnFoqvd61ORL5fqIUvfNX5a8XWTZBii8ZXJ5Rt+ircYEgFQRc+liqhwrr7pI5ya4yX0337mhGG5Rta6pSO9P1xKLCZkQW+FJR156zFEhPgbwFvgGtxzfpX6Hg5eHiTkyXohmvOVxeyWsSORzX5Rlg55Y/N1OKxmW/ZWUq0l8+fSwQSG9cPJNUTen3tCtLrDM+Tzd8+fmkBuwBSwFLgSQK5B/wDWI9vmnrJ6Xl9iIbPpSi8X+Tog/+IZEtH6Uvv3piIEhpzi4sTaJ0/MDzJ4+k5L+OaG3W/WrGJGEKmz8g5jr6PVZgDjds+OvZ/5YClgLhFBhZ4AvU8XndWTJej2/Kq1J8JVhUVdzbqRmC0aNowt+UiFt8eVZa0CvG6PHBP4YM+OprqmTOpLgRxdj0vPidv0nZo+RpWwAdG693djS6e25YMTf8YbZnLAUypcDIAl+gji9h3NCrszj76qZej69kQwi3h3UXNxU4PFxcLsxMD3hxkTfy2ZsDAj04OX+oqXwp86eMD2zv9OE9/uLqf7S1PuG/5y5OYMXcQGLZg5YCWVAgD4Ev+/X4Zk55XYovB3B7R0skMu9NtehA8fnMAQ8OMbLug0CQMsXTVHlzDCqelwVyetTfusaZTWGWJ+9ye+2Ngp4v3Q5r/vrD8Z/5ua2NdZ6m21sa1SZFnoM5/HPn4nFpqa8Z8BXxiXzELnKdwbvI6YYpx7W6O5MXc6BM6c2LUvPiiS4emjZUv5Sqp49Cz2dywnQ/yqR8UBnaCHMzCiqfy2PVzx9LxeNkCWgo72FkgS+NqKs5Pu3OErYe33S/bg/r7OaPnNVXQiy1rvEiyKDx2ycDMmiYQKgH6dnjBzJzomNIMc+TX7/sC+kN2LeWlwwR152toY0aIXtt6Gt1tDbLy9K7WcemuirVBMD2+NblwAjg3bt8Un5d+ZmwYZAOx7evEaI/PLh2Vi7s35ZV/OPUfn8zaf//smKePH9wS64e+10BmL9CZ3tr0j10GyvRAAAbv5girQ21/qqe/ziCUw4nbSztzXXVnrj/x6/l6tFdnmOUYYaKGeijSa/b54/I6d82hMZze7eY1QW60md8M3XQfpv4bobFhirv6tbc66/fznM/ZC8f35NLB3ekjGV/XtOXlPrK53Ji57qsY6lvCwK3wXimsfqlbP16uhzevFJ6Yt3+00P2f2SBL1DUTWworv34Uq3HN/fTt726PfR8x7NckMAAv8ia9we1HJUGN0YIX70Z7wbP+V29aLb0GE7B5oh2tNRKe3PchSW+wVDYbA2z3tO712Xr4hIVNy38RDYvKnL/6+NB6bXju1Uzse4uObhxmXrBj2xZKUe2fCc7ls6SXas+l8qyB2o1593ffymX4vNqK58+lC1fRdyXx7yXk7/8ILu/Xyi8uJnEAxuWyu/fLzSbyCi/67sF8uzeH2qWCvf24qF3f+KWhhrZtHCq3Dp7SG6ePqj6BpeqA/OLAbSOgJklugypCXxwh/vXf+OJ0BVA8h83N2CiHT/wHdu6Wg5vWiF/nj+aFM/+vkl+WT7HvA3Fce5Zs0h++26+y2lv+2aG6gP9CIvcmxn4yDHGfMj4EDC+gGFY3LN2kVzcv91tAlAPKgt4cg+Mf9B5//i4DYqoMdy5fI4c27Za0Vufg/bpPky6bKZp3gFfVuvxffyGTN+fwhXFALSUHB7lLs6Swej0NODplHm4JeODDSPLP5sm3cZsCXOwOjuapK2pQqJtDRLrSr+XrlnXzG9fOlPuX012jzHLBOUBBR5cEUeXCDdy99IJtyjbUt67clpxPXvX/U9unjnknjMzPPhXDv9qHkqZf3jjfBLwNdVWqmMAYlgE3HlZOM/L/fvqL+TcngSXBPBRhsDLTt/o49N7N+T+ldMKEDl2+9wR9Z9j5QEzSDTwPfrjYmA/DgFeF5yd6gILxA8GAd+Nk/sCq5TeuiS713yZdI79j+HWLh/6RZ2Da/XHK0d+k30/LE4cN7h0KsG18qHjGkxt9N87nFmjsYHUxQPbPcCnb8rPlQGi0LPiyX1dxLlH3/U9J0XUxxMQ5rlhnMxw6+xh2b5kpud+zPMDyecd8GWzHt/MzVMyNlSEAt+V2RJZ/4EUfRgMUhrIsk2Lx70SqCP8eubHEu1oDxwrpqa1Nr6Mz8ttdffRzYTbMxtEDxX08JllwvJhwIeotPnLqZ7INfSx4zvWeprUwAf4otci8JKc+nW9RxeG6Hj58K8SBHyIUz//b5rSiaEXC4pwlXAW5jlTrAsDPjgTwAoOjX4c2rhc/dcvn9kZwOrFoz9VOUCU6wEsv6yY68YtiyJKRDOPmcDPB4LrmPHe5VMCx6eBD7EcVUPZnWvy4Po5BXqaGzfvhzzgB3iFhWvH96i+BZ0HvOm3DjwvACmqDEJ95QvZ8lWxB2iCgI+PBx8aQFeHIOBj3PlIQsegAMDuXDZbzuz6KUk1QHn6yTk+5iYYB7WV6bE8Bb7M1uP7LPK2zFz9gZQcLckeAA8VS2T5hAG7q2QLhJT/ctr70tqcPFmfwerubJOWhnJBzO2KNrvuKw7ohT/gQQNdV/FMvWA8LHAFYdH/lactDXwHf1oqRL60cHxwPAAKsebFY9X+49tX3GN+o4cGvhsn9srRn79Tt4kRAXEU8Rm9HIEXFK4yDPjQ9wAIiEj+yL0iFt2Jc6SsPu2/DwV8X05VxgeuAfBQTwe4StQCOtw8c1Ddj/5PCkBWPXuk6ip94tHk+dSUwfgRFhCpeWkRFwFZ8l3Rdi/wdbQpVQOiL3pAxod6AwmZAh/jWltepu6d54Q8nCLPDnnukRAEfOh6AT7no+c8o0HAp0EryJgCx4mozgeRcUZPzRgiSvOsobOselaquPBfv/1MPTuM2WDDiAFfW2NF4G5hm5YMbD2+6ZNflZJF46R4zUQp3v6xFO+LSPHBYilmVsbeInUssvZ9KVrwlhRNGlruLhMQnP/JeGmsD1agx7o7FOixvHxXR1N8Tm73gGdpoISGM0llXOCBPbz526TnRwOf4qCelSr9kynqUgERCQABYMOCBj64CR5sRJ+9a79SHA2iMteHEwAEuVYq4OMFCDIAVD8vlbO7N7mcBCIqQG1yyI6O7xNVn5dLAx8vPNeve/lMcWq6H3Bf6NbMAKeBDpC6cKiIw3CGZkTXST/NY+Q1wOv2shF1dR2dwqVuX/Kpiid3rtOHA9NMgY/+0C/Gxh/h+p7dv6naDwI+TmCMoO9a5eEHPj4Gm78sUuDlv1H0nzynXD8sUhf9KWMAN83zQhws+OUW+Pp6FCfT2d4oCvhCjBt6lzW2lxzMenyZAFIuyuC0XFvl3XBbPwQ9sU5pbXgh7c3Vaj4uritqhgYW7xSijK4flKLED9INmWX5CgNO/qCBL0zHR3ltCQWQwoIGPs5juUSUIaK/IQIKGE8AQEIq4NPXeHr3hpzf5+wSp48hcmpdF0YUndfnw0Tdh9fPCeCB28RvK+fr4so6jFimtwmA4+FF0zo+gALAhBPLJOp29AU08CkdW1en4vjQUfqNIuZ/3Qb0huuFG8QwkSpkC3xBbe378eu0wEc9xHKAiY+cCXwYgfgY8KEIC6gQ+GAhXjfXVysXG2gOvfUzaNaF9hjCwlQAZtlU+REFPrXSiO/ufl4xR20oPuj1+IyZEbkAt7Br4MqCH19QYI/c1sZyB/SUvx4DHt9FbYCgx3XO/L5RTv3yY9Al3WPolvwgwkkNfAACXBpiGRwf7iJY9oiIq3yhsfbqY6R8/XUwgQ+RCF3d9RN79WlBTKaNu5ccvVIQ8CHmwOHgooMIiggGIJAn4jd3+9xh5VLBNbZ9PV1xcO5FRCQM+OgXujS4Y1xRdEDfyH2d3vWTOsTL/OT2VQ/wcQIRzQSnoDz3b4ZoW7NqF66USJ8ZB2gFN4dxBr2Zjrzc0M3vEoPuMJ+Ajz4iphJM4ON/kHirCg7iR38IBtGE5A74pF+tLNLTHVWcDZZLuB1/2PXD4jjwFQt+fKvNXdbc7SXHyRefvO3ZbEjvshYGQCNxfPqEf8nT0uSNuukzXJ3D6VUJHHCsywG9oVh9hS81urVUgRcVMPMHDXzorNA18SUH+LDmlt25ruL1E3sUOFw6tNM9xjmtD6JNE/gAUcAENwz9FdfGAqyphCDgQ5cIl0hZdGOIPYAn4ijH8WnDhQfuFgAN4nJxbqae1hdxH4jIiE9wD3CjptiISAfooU+Cw9TB5Pg4xn1DH9oPikq8N5xw4Uy5NhEXHMCN62vjBsYK3G7genRAvDddSPTx4QA+PoL+CDgHibroUv1l9X/UBPTx6NZVoWXMPtInaKMlgnQp/n1DEXIPfLFOpcfCQZeX3R8Ob1+jgE+tzgLwLZjibiie0Xp8g9gScijBcdr4v8vDO45+xN9HvlgYMtRyUwr0HLcVQM/UT/nrZfpf6USWzFQvGC9ZUES3gpuAP2jg0wDld2ehPFwRYHJ292Z/dfe/Bj76AyABxIABQAUHg/sJxhOOIRIFAR8ikBaF8XNDPCfw4tBHuAt0PeiY0P8AJv6AczbGC7jTXasWqJeS+9d6PNo0xaZzezarDwL6SxPIg4APETnIV41j6MfM2QeVZQ+VUQg6mA7MGvi4bww12kcSBb8CbIOL1n0bSuBDbaHE/l9+UBwsefqFfpg890EwdXyoKpAogiKGDoAPf9Cg8xzz6+fO7/1ZfUQY71QRSQY1xFCEnAJff1+v4vKwWuKg2xVtSerD5RN7HI5voOvxvR2yvWQORV8WHfjz+uWkviQ03LsAAArVSURBVHEAcGttrHAWH2hvcJaTj3Wp40MBeoAK4lu6iAgV5OcXBHzoDPXDSvtwgQAVHIEJDmaHNfCh/4F7AjhQgAOCXBf3CcRTxGY4uCDgo5w2wACUgBTXA5zgEhQ9e3uVS41+IQBR070ClxjtvMsLy0vJy4x+jnsCQE2fM4A+yO0iCPgQkeFGg6Jq1+D4NG20jk//N4EP0Rj3ICzIB39a5oKzLqtTE/hwPA4ax0x1fLpNaIqTN+HAhiXuRwR1AuKqCXy6TlDqF3WDyviPAXz6Q+Q/Z/7n+dHjbB4fSD6HwCfKSokOqzvaonYNY7klf6h8Xprg+HzGjSWfvieLS94VvQKzs6/uazJr4r/F2XPjFcloQ/FhBsHzxw74u6X+A2yI+HC7OCjjwsJGQkPF6QVeNOQgYtWTP696zgJqgADgAGdyYsdapTfj/7Ft36uyiD7MGoAjvLBva5IxQTcI8CGmYRgAhAnoy3CRADgRjQmkzE7g5QXczID4BPdEiLa1qBkg6PEAB9wdCLQHZ6TBCuU/+jsd+A9nSdDAB7gT6Av3Z35w4FgQf/0hCPjQa8IVBUU+LCbHp9tLBXyUAdDhYBH5AJGgAPAh8uHuwjjqj4BZNhvgw7LN/WorPfTDn5AAl4Uu1AKfSd0s8zxg6LZ44dk8B87HH3g4t6yYK4i6WsfH6iz+DcXR8c2f/IbM+/B1mf3+q+Lo+OK7ow0zsKUSidkeskdZpLw9U6CnOD1mZdSrfTTQcY4E6GmrbHnpXc9N8mV3xMIFyv2DF4uvPwYEArosRFPt3gL4AEKP/rjgaYc/muNDT2cGxhfuTgesm3BfcIZ+4EM8xbBAAJThSOCk0BViFYYzguuEo3P0hyI4BePiogN14OIIJvChp0LPiZ7SDHBx6A79IQj4EMOhTVAcCPCh80O/yIcGQDY5UfN+4I4APGgf5jvIR8P8AJj1tQMzHyKAGF9JPcaUg8PHqAQttLUW0TdI32i2S95yfH6K8PD296lVRnDZgONhlkKQgeOPc0cU8OHOkvF6fO/+U0rGjzzHt2+7o4fydL+/X9qbKhXQe0CvV+v0snNQ9rRt/MHqmU45zHleKl4uHm5dXlvfTDGRprWOD5GHsuihTA4JkAAsEVfN4xr4jNtLynItXj6snXCXTHrXAUsuejJAEe4DPSVAg5ECsOS6ACP14ODQWXIMEVGLbLSFaARHhu8hoiT3yjXR8+FGQvsAOKI81+G8X/lOO0HAZ+rq9H2Tci3uBzFbB0ANvzXoooGYc1rUBcTpH1wkfYSr417Qo+LUqwPtAP6MhflRQQXAYgXMksEow3mMUEFBA19bU70CR67tD9ADx2HGCBpBxyBO2F9voMBHn+h/qshHblSKuvilweGwdwSOumoifntilQlNRB6cLcvnKo4v4ceXej2+fBB14fY62pM97aNtddLKrAy2iIy2OFPRevVuaUMDetAOZ1nlooGbRpYRfVtQ4CWFGwAkABlePH+AW4NrMFcMyQT4EKcBYAXCS2d6FhiAu0C8IsBhEuHSdODlRYQFkAiIykwbA3C0Qh7xGA6VlxfuDiBBTwiwwTHhOE0AwLgHwOJagKWbMumAD44U/SVT6KCFY2FOjC3uL1wDMRYDjw4AH9wZHCI+iLo/nGfFFACfj4oZWAIL7tsMerYO16BviMJaL2uWI6+Bz3/c/x+On/aI3EfQB8FfZ6DAxwcr3TOLA/roBD7pT+j5OpmeUqu4Powe/vDo9lVxOL4pohYinfWBaKuu3ld3weQ3lairdXzTxo0sx8deGv4Ad9LS8ELpNLs6BjcVzd92Lv4jbuGfx4tGX8KC9uPS5+E80r0o1IEroqzfNwuQg9NIFUyQoBzl/XX0qitwW+Y5c84n7fCx1ZbsoGvCzQLwmiOmPpZaM6BvhHsy29bnqQcnp+vr47zs1NH3qY/rlHvz00afM1PGhg8P3C8GnlSBlU4A1XSBduiL/pCkK8957hfAhJvMNPCMBelD/fXRRfr10v4ymf7PqXGDmzLFXTWDo6lCOtuSuT7Knjv0q5q5kW49vtnvm8aNkbHqbv8hefoXfQDsMGY4vnrGrIz46ieZDpQtZylgKTB0FMg58CXE3U7lztLRggPo88CvmlJAb/1eUq3HN2+SY9xA1B0pjm/tYtw1epJGBbGeqXmOXs9YYioF55TUiD1gKWApMOQUyD3wuVxft3Jgdri+SmlrZsWFZFEK8Du1f4csn50QdRdFnJkbWHXneqy6uRd1t61bEbiKMiMVba0VtfAAq62wJ65rzBjycbQNWgpYCmRBgREBPs314cPGGnTKtaWhXHFGYfd+9/oFWf15RBaXTBCAb+HUdzxT1hLGjdyIurM/+I9cPZtYoNN/3xrQHRGX6WgDX23F37b9bylgKTA4CowM8LlcX0yt1oIeDM4IkRerZ1hg1eJzh3fL0lmT1Fzd+Rg3EHVdB+a/D7sDM5bb/Ts3SXtr+H0yFQ9XHe260hufmTHQ1VbC6GGPWwpYCgyMAiMGfIi1WHPhhAAKOCPcW5i4DxeYKvT29kjZwztycOdG+XHJZ7Jk9mSZ8+HrQ+7Hx9LxrKO3bF5Eft+yTv68fkliAe4c5r3GOtvirissKIrrCiKudl0xS9q8pYClwEhRYASBT7F9rnsL+0to8IPzi7Z6tzEcKQJlc13uX/nrsYqycl2Jbwup3HWS9ZfZtG3LWgpYCgwdBUYW+LTI29cjiINMZXPAr1pa6l+o2Q5Ba/YNXfeHpiV8l3BZcfbLcECPVZVdvZ614g4NoW0rlgJDRIERBz76oXz74uCnxN6ORuXwC5C01D0VZj6YXvtD1PdBN8N9sysaXJ5aeKC1zhFvLegNmra2AUuB4aRAXgCf0vcxjxfw6+kS5vKydBXiLoDCzIfm+mcKANGZjXSAkwOMEckB5/aWaulUS0y1xjcJiltwLac30kNlr28pEEiBPAE+597goLTBg5WaMXIg+jK1zQHAcmmueyrNdc8URwi3hW4w1u34yMEV6kg7A4m6vkp7mVfcqTb/wVDBvhiAnQt4zdXKcos+D05VrbaCIWMQ+2UEjpI9aClgKTCkFMgr4FM963esvej2FPfX3eECIBwg4MOadoiX6AEBQcCwqfaJEcukqXYw0WmrubZMta3AruGF4u4AYGab4KoC4KGXhAuFC0wsMWUNGUP6lNrGLAWGmAL5B3yqg/1K7wfnpAAw1iU9CgDblAgMFwjwwAkCQoAhrjBElnMHnAYXnbZUmy3VDtC11qmltOAy8TV0OLw44DEjw3J5Q/xo2uYsBYaPAnkKfLrDPgDs6VbiJGIwwAO3hTiMGIpOEA7MG5vU8lcsgZVZNOrTXrRZgRzX4FroHrm2ckjujXN4iNRqm0zL5elRs6mlQL5TIM+BT5MvDoBxHSBzXh1RuFuJwwAR+rWhjkypo21EbiXK9sYccVaDnTJeWMDTo2RTS4HRQoFRAnwmOfvxf3FE4TgQDsSIkXUdrgVnZ8HOHAybtxQYlRQYhcAXRmc4r6GOYdeyxy0FLAVGMwXGEPCN5mGw924pYCmQSwpY4Mslte21LAUsBfKCAhb48mIY7E1YClgK5JICFvhySW17LUsBS4G8oIAFvrwYBnsTlgKWArmkgAW+XFLbXstSwFIgLyhggS8vhsHehKWApUAuKWCBL5fUtteyFLAUyAsKWODLi2GwN2EpYCmQSwr8P6cP5vQWmoNmAAAAAElFTkSuQmCC;imageBorder=#99CCFF;" vertex="1" parent="WIyWlLk6GJQsqaUBKTNV-1">
          <mxGeometry x="280" y="187.5" width="193.56" height="70" as="geometry" />
        </mxCell>
        <mxCell id="yNAFbRZhFlkog8Pj02Fz-8" value="测试结果反馈" style="text;html=1;align=center;verticalAlign=middle;resizable=0;points=[];autosize=1;glass=0;rounded=0;fontSize=14;" vertex="1" parent="WIyWlLk6GJQsqaUBKTNV-1">
          <mxGeometry x="310" y="280" width="100" height="20" as="geometry" />
        </mxCell>
        <mxCell id="yNAFbRZhFlkog8Pj02Fz-13" value="数据下载" style="text;html=1;align=center;verticalAlign=middle;resizable=0;points=[];autosize=1;fontSize=14;" vertex="1" parent="WIyWlLk6GJQsqaUBKTNV-1">
          <mxGeometry x="475" y="200.5" width="70" height="20" as="geometry" />
        </mxCell>
        <mxCell id="yNAFbRZhFlkog8Pj02Fz-16" value="测试分析" style="shape=process;whiteSpace=wrap;html=1;backgroundOutline=1;rounded=0;glass=0;fontSize=14;fillColor=#cce5ff;strokeColor=#36393d;" vertex="1" parent="WIyWlLk6GJQsqaUBKTNV-1">
          <mxGeometry x="680" y="207.5" width="80" height="30" as="geometry" />
        </mxCell>
        <mxCell id="yNAFbRZhFlkog8Pj02Fz-40" value="" style="rounded=0;html=1;jettySize=auto;orthogonalLoop=1;fontSize=11;endArrow=block;endFill=0;endSize=8;strokeWidth=1;shadow=0;labelBackgroundColor=none;edgeStyle=orthogonalEdgeStyle;fillColor=#dae8fc;strokeColor=#6c8ebf;exitX=0.5;exitY=1;exitDx=0;exitDy=0;entryX=0;entryY=0.5;entryDx=0;entryDy=0;" edge="1" parent="WIyWlLk6GJQsqaUBKTNV-1" source="yNAFbRZhFlkog8Pj02Fz-45" target="yNAFbRZhFlkog8Pj02Fz-42">
          <mxGeometry relative="1" as="geometry">
            <mxPoint x="400" y="780" as="targetPoint" />
            <Array as="points">
              <mxPoint x="220" y="660" />
            </Array>
          </mxGeometry>
        </mxCell>
        <mxCell id="yNAFbRZhFlkog8Pj02Fz-41" value="测试数据" style="edgeLabel;html=1;align=center;verticalAlign=middle;resizable=0;points=[];fontSize=14;" vertex="1" connectable="0" parent="yNAFbRZhFlkog8Pj02Fz-40">
          <mxGeometry x="-0.5678" y="-3" relative="1" as="geometry">
            <mxPoint x="213" y="11" as="offset" />
          </mxGeometry>
        </mxCell>
        <mxCell id="yNAFbRZhFlkog8Pj02Fz-42" value="&lt;font style=&quot;font-size: 14px&quot;&gt;猎网&lt;/font&gt;" style="rounded=1;whiteSpace=wrap;html=1;fontSize=12;glass=0;strokeWidth=1;shadow=0;gradientColor=#97d077;fillColor=#d5e8d4;strokeColor=#82b366;" vertex="1" parent="WIyWlLk6GJQsqaUBKTNV-1">
          <mxGeometry x="610" y="640" width="80" height="40" as="geometry" />
        </mxCell>
        <mxCell id="yNAFbRZhFlkog8Pj02Fz-44" style="rounded=0;orthogonalLoop=1;jettySize=auto;html=1;fontSize=14;startArrow=classic;startFill=1;" edge="1" parent="WIyWlLk6GJQsqaUBKTNV-1" source="yNAFbRZhFlkog8Pj02Fz-45" target="yNAFbRZhFlkog8Pj02Fz-50">
          <mxGeometry relative="1" as="geometry">
            <mxPoint x="610" y="392" as="sourcePoint" />
          </mxGeometry>
        </mxCell>
        <mxCell id="yNAFbRZhFlkog8Pj02Fz-45" value="&lt;font style=&quot;font-size: 14px&quot;&gt;测试用户&lt;/font&gt;" style="rounded=1;whiteSpace=wrap;html=1;fontSize=12;glass=0;strokeWidth=1;shadow=0;fillColor=#fff2cc;strokeColor=#d6b656;gradientColor=#ffd966;" vertex="1" parent="WIyWlLk6GJQsqaUBKTNV-1">
          <mxGeometry x="185" y="475" width="90" height="40" as="geometry" />
        </mxCell>
        <mxCell id="yNAFbRZhFlkog8Pj02Fz-47" value="" style="shape=image;verticalLabelPosition=bottom;labelBackgroundColor=#ffffff;verticalAlign=top;aspect=fixed;imageAspect=0;image=data:image/png,iVBORw0KGgoAAAANSUhEUgAAAT4AAABzCAYAAAABiW42AAAgAElEQVR4Ae2dh5sURfrH71+833lJPRMcioqI7CwLEgVFPJQkgoCCBEkqknPOUUDywhKWzTnN7s6G9/d8qqd6qnu6J2yYnd2pep6aqumuqu56q/vbb6qqv4gNlgKWApYCBUaBvxRYf213LQUsBSwFxAKffQgsBSwFCo4CFvgKbshthy0FLAUs8NlnwFLAUqDgKGCBr+CG3HbYUsBSwAKffQYsBSwFCo4CFvgKbshthy0FLAUs8NlnwFLAUqDgKGCBr+CG3HbYUsBSwAKffQYsBSwFCo4CFvgKbshthy0FLAUKEvja6x9KtPm5dLfXSF9Pp30KLAUsBQqMAoUHfP190lL9pye21z+SWLShwIbedtdSoHApUHDA19fTJS3VtwNjW90D6eluLdynwfbcUqBAKFBwwBfrbJLmqltOrLyZSOP5lqpb0tVWVSDDb7tpKVCYFCg44Is2PZfmyj9UbDJSM8/5aNOzwnwibK8tBQqAAgUGfP2Kw2uquC5OvGGk5L3Rcn4F8AbYLhYkBQoK+LraqqXx5bU42F138xxTx4206eU1aa68If293QX5YNhOWwqMZQoUDPD1xqLS9PK6NJZfDY8v4+dI4/loS/lYHn/bN0uBgqRAQQBfb6xdmitvSmP5FU9seHFZ/SdVsfxKIo2Xba29X5APhu20pcBYpsAYB75+6WyrioPbJQfUXuj0stQ/d/KkZt4FwheXpKX6zlgef9s3S4GCpMCYBL7+vph0tlYqXV7984vSEI86T2rmw85TxnJ8Bfle2E6PcQqMGeDr7+uRrrYaaa25L/XPL0jds/NS/yyRkk+Kz+PHSHWdeKrrd7XXjvFHwHbPUqDwKDCqga+/r1ew1LbU3JUGAOspYHdepWaeY+q4kQJsdU/PKYBUKXlfbKr4o/CeCNtjS4ECoMDoBL7+PmlvLJM6OLqnZ6W2LDjWxY+TmnldXtcldSLgR94BwVi0qQAeAdtFS4HCo8CoBL7m6j+ltuzMsMamypuF9zTYHlsKFAgFRiXw1T49KzVPTkntk9NuauY5N5BotoFxxAZLAUuBsUmBUQl8zVV3pObxyaxjLYD4+KSQmvmgtuw6fWPzgbe9shSAAqMS+FhaCl1czeMTnlhd6vwndeJxIz0uNeq4k5r56lLKJcq2NTyxT4elgKXAGKbAqAQ+xqM72uiA1aNjUhWPgBd5F8h0ntTMu0CnAc9J4QK1iNvfGxOsxjZYClgKjD0KjFrgYyjaG55I1aOjUh2PVQ+dPGlQpJwu480fl5aa+9IXX5AAf8C6sjNSV3ZOYp0tY2/UbY8sBQqcAqMa+ACqqodHpPKBE3WeNJOIZbit/rEgOrOIQUfjM+UDaNaFU+xoel7gj4ntvqXA2KLAqAa+jqYXUvngsFTFY+WDQypPaubN8xgyGl9el9a6RwrQmqtuKx8/yph1dBs6bVZzdvvH1ujb3lgKFCgFRi3wtdc/kcr7B7OKCgDhEO8fUrFC1T8kpE4+kTptU45rOOXrn1+Wvt5YgT4qttuWAmOHAqMS+Fqq70rFvf1Sce+AkR6Qyvv8d1Iz75RzzqXKm3XMvFvn/gGpeXxKerraxs4TYHtiKVCAFMgz4EOUTBX7hPmzDujtl4q7gF88vbtfXt7dp46Rqvy9+DEFkvGyRt4sY+bd9o2y5rGqR0eku6M+zb1asbgA3yfb5VFCgREEvn6R/n7p7+9zYl+vch/BhSQo9vV0S/2zi/Lyzr5EBOz4r0DPAUDyChDj58i7dQBEVd4BRjev29Rl4+25bevzRlpx94B0NL4IvFfP/cf75wD6KHkq7G1aCoxxCowM8MUBr6+vR+nMenu6pTfWJT2xzsAY62qVmsdnpPzuPk98Ef9Paub95Ybzf3P1/cB77o11Si/W4p5u1UcFhv19cS5xjD9VtnuWAnlOgdwDH6DX1+sAXqxTYt0d0t3ZJt3RFumKNktXh45N0tXRJNGWaql8eFzK7+yX8jv7jNTMcy7oPGXMaJbZL+V34/VIVR5g1WWC2o+XV9fS5fZLw4sb6l65X/f+oy3S3dkqsa526emOKhAE6OFwLfeX52+Fvb0xT4EcA18C9HpiUQUMnR2N0tneqLimvt4e6e/rM2IcIOEI8zya944Iz384WAWE0WYFgHCACfAb88+W7aClQN5SILfAByD0OYAANxRta1BcXn//2DUE0Df6CsDD/XnBb2j73dXZIVXPSt3Y2R5sfe6D484g8hHKJNSUP3WvWfvyaWgVaGHeX2ONXQEnlFj2xLBSIKfAh5gH5wYAwOVF2+qVgWNYe5gHjfPC01f6rMAv1qlEfcX9YczRBhD1ARg4GJbdvSFLprzmxvvXzgX2fmXJOLeMWd6fX/rJ67Lz2/nS3RkNbEcf/H72+257a+Z8qA8npbRjXuO31V8mlbEHLAVyQYEcAp8j5sLxwAF1tNZKdwH5wwF47c3VCvyU7q+7Q4nCpgHEEZcdIERczjYMNfBpkHp6L7EEf+XTR/LTlxFPXDb1Py6gLSt6w3POLLthYZFbjra/LRmXVLajzc6NznbcbfnsKZBT4NNiLnqv9uYqxfVkf8ujswacbkv9c9XvaGudAkDogFFHAaFpBImvDJOtIWTL1596gGX955/ItqVz3Hhw83fS1twgW5fMlo2Lpsm3095xywNYHCOumjHBPQ5AtTbhs+iEF4/ueM5pcByqtL25UV/KppYCw0aB3ANfd1Q6O5qkrakybuH09m3TkhmyYXGJ/LAoImu++ERWL/hYvp07SZbP/kCWfPqeLJ42QRZFxssXn7wt8ye/KfMmvS6zJ/5bPn33n1Iy/u8Sefv/pOitv4549PbK+YdezTXeYN3Vbj29McX9Kes2luDuDkcXiLEnCytwJiLskW1r3Fvb8vVMF8R+XDDFPb5jxWfu8bVzvaKrBT6XTDYziimQO+DThg2Ar71R2horlILdT7tNSz6VDYunKeBbu3CqrJ5vAt9EWVxiAt8bMvfD12X2+/+WGRP+ISXjX8lr4PP3Neg/XDEqAEAQqzBzgzMFP5ODC+PA9q5f6l4WjlCX27J4hjre19srK4rfdo/v27DcLU8m1t0ldRXPPXHVzHfd8qtnvec5Z5atKHvoluO625bNTSrLx8EGS4HhpkBugQ8Xj+4OBXytocA3Q36Kc3wA36r5H8vKeR8pju+bGe95gG/Bxw7HNyvO8U0bN/qBTw94rAv/xtaswO/aiX0eYLlwYKe8fPJAlho6OBP4vp810S2/c+UCdWmsrhoMSW+cPqhvKTQ9u3ernPhlvYrn9m0PLdcbi7nlKH/z7OHQsvaEpcBwUmBEgQ9HZn/Qou6PStSd6hN1HY7vK0PUdTi+V0eFqOvva7r/fCRc8HOdn8NrhRk3TOODCXzLI2+6ILd73deq4esnD7jHAD6AMF3o7YnJqV0bZdNXJfLTwkjaiIh99fjedM3a85YCw0aBEQW+ILFm0zeOju/HRcWy5gufqOtyfOOUjg+OD+CD45sxAR3fKyOu29P6xaEaMcfw0aZ0fs6HItzamw3wAVYmZ3doyyp1ywCjPo7Ii+ibLhzbsc6to+tmkt46dzRd0/a8pcCwUGBEgc/RXXn75ej4HOPGWoBvwRTDuJGs48O4oUXdfDJuaABMl8776G1Z980CKb1320uI+D9cXJgKx7S3hL4vsKhkA3y4jZjgdOLXDarRNYZPHoaNP84ckgc3Lkh3V7Av37MHtz3tmG2my6+cPl5ZmYN7Y49aCgwfBfIQ+OIc31dwfOmsum8oq64LfErHN/IW3XRgF3b+8K6tgSOt3F4603N92QBfU22VB7DO798uHa1NnmMmcB3dvs69t9JbV8SJl2XtvEmeOujt6ipfhMbjO3/0lMeJWbf37P4t9xo2YykwnBTIW+DDncVv3FDuLCXvuu4sjqj7msHx5Y9xIwzc0h0P4vwwdAB+ysrb1xO6yEE2wFdTXuYBIK1zMy20JvDhI0hAPWEeN/Om/jDsoe3p7pIf5k8ObAMrsw2WArmgQP4BX1zH5/jxOTo+rLrLZuHHp0VdR8c3f/IbMk+5s7wa1/H9PW90fOkALuw8Yq8/4Pysprt1dzhO3yGzOrIBPr8/3q3zx9Rlu6Id8vDGRfnz4kkxrb7pgA8ROdre6t76lWN7BFFWx9LbV91zcHYmYOq8BT6XRDYzzBTIP+Bb4nVncR2Yw4APB+b3tVV39HN8cz96K2nI4bKY68u0N3aWC9KNUikb4AOINOCQPrh+Iem6Hj+/OMeHA/YvKz/3RGaENNRUeOpfOvybp/1HNy95zpfeuiy71y32tbPSU8b+sRQYLgrkIfDhwKxnbph+fB86HJ8xc8O06jozN/IH+FINWHVFuez4cWUod+qvC9Cpuc1Kzzc0wHf38mkPMJnzcfX1g4CPc8zXffjHpZQRx2cTWE/t2pSyPO3VV5brS9vUUmBYKZCHwJeYsqZmbiyY4jgwGxyf9uNbwJS1uDsLwDfaHJjDwM8/4rixdLTUKJ8+FjUI8n+kjp/ju3P5lNLJBTkw45hsAlNF2QP/ZSUM+PYZLi9mG4PN43Btg6VALigwssAX4sCsZ27gx8fMDT1XNzFzY5wsnMpcXaasvaamrCU4vvyw6mYyeDWV5YFcn7+uC3zRFsOfz19KpL6q3ANm67+YKszNNQHpzJ6fVUW/KIol1h8s8PkpYv+PFQqMLPCpCfheUiZmbhSL9uNbOdeZsrbEdWD2LVIQ1/GNNo6vr68vQ+Drk3Y4PoAvFs7xQUn88UygM/PMqtBr653ZvcVTrrUxsQKLHpEw4AM0f121MGVk0QPz2szqSFcH8dsGS4FcUCDvgG/zkk/dubrKj8/g+IKsunrKmp65kdHqLJP/KZFvxktk4yQp3lMkkf0RiZDumiqRHR9LZNVEicz8jxQNYqWXTAcvyLrrr4tBIVPgwxDC5H8TdMh/N+O/0libWPH46Pa1njJYc/0hDPh0uUc3L8uVY7vdaDo5+zlK07jR0lDr1qF+eek93aRNLQVyQoG8Az6H45smibm6jo7P786ycOo7EmzcCBF1x/2fRP43TooPF0vx9TmZxd+nBnJkQWDlP+YfPWZgEP3BX4///uABvhQ6Pl2v+vkTD6gBfDfPHtGnVeo3PgQt/58K+JjKZq7bxyKjZkgFfLGuTs9agD9/M9OsavOWAsNOgTwFPm3VTTdzI8P1+Oa8IcUnpmcGdhoUL8yUSNG/hxT4/ODS3dUV2L5/1JVVV4u6aYCvt7dHLTzq5/jQ95kcGTMmdBlWQg4KqYDvsc8d5vKRXZ4mUgEfBQ9uWulen/uw+294yGf/DDMF8hD4hnY9vsh372YHeADfqelSNHXgoBfEtQWNY/XLF0nAN/vDN5KKMkc3E6suFf0irAY30n0blqm27109KwChPmcuNopLyd0rZ1Q099LQDsz65mhL1ydFfO3saJOTv21UcevS2Z7zpqhLG0/v3fScv3DQWnQ1bW06/BTIQ+DzOjAPZj0+pcPTHFyGKfq+oonxGSCIxyvfk8jB4iSAChJRzWOZDN29m1eT2l08c3JSVTYnd/z4Wh2rboBRiErMvjDB6OdvZgnOxeYxFh0wZ2RwbuOXxe41rx7f4ymv65rAh4FkReQtt9z25fNUfcBPl/enzMc1A+K7CazmCtBmOZu3FBgOCuQl8OHAnNDxJdxZtHFD+/Gx9Lw2biQtPf/tADi99R9K0TvxpeuLXpXio9McbvHqnCSAMkEuKJ/JYO3dtiGp3bVff5ZUlbm6Ha11alVmpq+FzdxgGpoWYZlCxv4aLD8FAAJEWFUrn5XKpv+VeADq2I4f3GuGAd/BzYlZFfgHmsB2+8JxVT8M+FZ9OkHaW5rca+gMa/iZ7XBvNlgK5IIC+Qd8Q7AeX2TWf6T4WoYGjOtzJHJxlhR9/pYDQm//VSIr3pXiq7MTIvKZGUkAFQR25rFMBm/B1AlJ7Z484NWV0Q5r8iWmrOml6MOvwHLv5v62bU0NwrLvOrDtpLbG3rt6RjA26AD46HM6BehYPVkH5vKy0rKO2iLMvr66jk4xqoRtIISVWbdBCnDbYCmQCwqMLPAFOjAnpqxpPz7twKw5vsRmQ75lqdhs6L+vZGfIOFAsRZP/qQAo8vG/lGuL3+ob2TklCaBMkAvKpxs8VmEJqofezx+cPXkb1CZE6PsGsvWkv03731KgkCkwssAXoKtyHZgHuh7f9xMTnFoqvd61ORL5fqIUvfNX5a8XWTZBii8ZXJ5Rt+ircYEgFQRc+liqhwrr7pI5ya4yX0337mhGG5Rta6pSO9P1xKLCZkQW+FJR156zFEhPgbwFvgGtxzfpX6Hg5eHiTkyXohmvOVxeyWsSORzX5Rlg55Y/N1OKxmW/ZWUq0l8+fSwQSG9cPJNUTen3tCtLrDM+Tzd8+fmkBuwBSwFLgSQK5B/wDWI9vmnrJ6Xl9iIbPpSi8X+Tog/+IZEtH6Uvv3piIEhpzi4sTaJ0/MDzJ4+k5L+OaG3W/WrGJGEKmz8g5jr6PVZgDjds+OvZ/5YClgLhFBhZ4AvU8XndWTJej2/Kq1J8JVhUVdzbqRmC0aNowt+UiFt8eVZa0CvG6PHBP4YM+OprqmTOpLgRxdj0vPidv0nZo+RpWwAdG693djS6e25YMTf8YbZnLAUypcDIAl+gji9h3NCrszj76qZej69kQwi3h3UXNxU4PFxcLsxMD3hxkTfy2ZsDAj04OX+oqXwp86eMD2zv9OE9/uLqf7S1PuG/5y5OYMXcQGLZg5YCWVAgD4Ev+/X4Zk55XYovB3B7R0skMu9NtehA8fnMAQ8OMbLug0CQMsXTVHlzDCqelwVyetTfusaZTWGWJ+9ye+2Ngp4v3Q5r/vrD8Z/5ua2NdZ6m21sa1SZFnoM5/HPn4nFpqa8Z8BXxiXzELnKdwbvI6YYpx7W6O5MXc6BM6c2LUvPiiS4emjZUv5Sqp49Cz2dywnQ/yqR8UBnaCHMzCiqfy2PVzx9LxeNkCWgo72FkgS+NqKs5Pu3OErYe33S/bg/r7OaPnNVXQiy1rvEiyKDx2ycDMmiYQKgH6dnjBzJzomNIMc+TX7/sC+kN2LeWlwwR152toY0aIXtt6Gt1tDbLy9K7WcemuirVBMD2+NblwAjg3bt8Un5d+ZmwYZAOx7evEaI/PLh2Vi7s35ZV/OPUfn8zaf//smKePH9wS64e+10BmL9CZ3tr0j10GyvRAAAbv5girQ21/qqe/ziCUw4nbSztzXXVnrj/x6/l6tFdnmOUYYaKGeijSa/b54/I6d82hMZze7eY1QW60md8M3XQfpv4bobFhirv6tbc66/fznM/ZC8f35NLB3ekjGV/XtOXlPrK53Ji57qsY6lvCwK3wXimsfqlbP16uhzevFJ6Yt3+00P2f2SBL1DUTWworv34Uq3HN/fTt726PfR8x7NckMAAv8ia9we1HJUGN0YIX70Z7wbP+V29aLb0GE7B5oh2tNRKe3PchSW+wVDYbA2z3tO712Xr4hIVNy38RDYvKnL/6+NB6bXju1Uzse4uObhxmXrBj2xZKUe2fCc7ls6SXas+l8qyB2o1593ffymX4vNqK58+lC1fRdyXx7yXk7/8ILu/Xyi8uJnEAxuWyu/fLzSbyCi/67sF8uzeH2qWCvf24qF3f+KWhhrZtHCq3Dp7SG6ePqj6BpeqA/OLAbSOgJklugypCXxwh/vXf+OJ0BVA8h83N2CiHT/wHdu6Wg5vWiF/nj+aFM/+vkl+WT7HvA3Fce5Zs0h++26+y2lv+2aG6gP9CIvcmxn4yDHGfMj4EDC+gGFY3LN2kVzcv91tAlAPKgt4cg+Mf9B5//i4DYqoMdy5fI4c27Za0Vufg/bpPky6bKZp3gFfVuvxffyGTN+fwhXFALSUHB7lLs6Swej0NODplHm4JeODDSPLP5sm3cZsCXOwOjuapK2pQqJtDRLrSr+XrlnXzG9fOlPuX012jzHLBOUBBR5cEUeXCDdy99IJtyjbUt67clpxPXvX/U9unjnknjMzPPhXDv9qHkqZf3jjfBLwNdVWqmMAYlgE3HlZOM/L/fvqL+TcngSXBPBRhsDLTt/o49N7N+T+ldMKEDl2+9wR9Z9j5QEzSDTwPfrjYmA/DgFeF5yd6gILxA8GAd+Nk/sCq5TeuiS713yZdI79j+HWLh/6RZ2Da/XHK0d+k30/LE4cN7h0KsG18qHjGkxt9N87nFmjsYHUxQPbPcCnb8rPlQGi0LPiyX1dxLlH3/U9J0XUxxMQ5rlhnMxw6+xh2b5kpud+zPMDyecd8GWzHt/MzVMyNlSEAt+V2RJZ/4EUfRgMUhrIsk2Lx70SqCP8eubHEu1oDxwrpqa1Nr6Mz8ttdffRzYTbMxtEDxX08JllwvJhwIeotPnLqZ7INfSx4zvWeprUwAf4otci8JKc+nW9RxeG6Hj58K8SBHyIUz//b5rSiaEXC4pwlXAW5jlTrAsDPjgTwAoOjX4c2rhc/dcvn9kZwOrFoz9VOUCU6wEsv6yY68YtiyJKRDOPmcDPB4LrmPHe5VMCx6eBD7EcVUPZnWvy4Po5BXqaGzfvhzzgB3iFhWvH96i+BZ0HvOm3DjwvACmqDEJ95QvZ8lWxB2iCgI+PBx8aQFeHIOBj3PlIQsegAMDuXDZbzuz6KUk1QHn6yTk+5iYYB7WV6bE8Bb7M1uP7LPK2zFz9gZQcLckeAA8VS2T5hAG7q2QLhJT/ctr70tqcPFmfwerubJOWhnJBzO2KNrvuKw7ohT/gQQNdV/FMvWA8LHAFYdH/lactDXwHf1oqRL60cHxwPAAKsebFY9X+49tX3GN+o4cGvhsn9srRn79Tt4kRAXEU8Rm9HIEXFK4yDPjQ9wAIiEj+yL0iFt2Jc6SsPu2/DwV8X05VxgeuAfBQTwe4StQCOtw8c1Ddj/5PCkBWPXuk6ip94tHk+dSUwfgRFhCpeWkRFwFZ8l3Rdi/wdbQpVQOiL3pAxod6AwmZAh/jWltepu6d54Q8nCLPDnnukRAEfOh6AT7no+c8o0HAp0EryJgCx4mozgeRcUZPzRgiSvOsobOselaquPBfv/1MPTuM2WDDiAFfW2NF4G5hm5YMbD2+6ZNflZJF46R4zUQp3v6xFO+LSPHBYilmVsbeInUssvZ9KVrwlhRNGlruLhMQnP/JeGmsD1agx7o7FOixvHxXR1N8Tm73gGdpoISGM0llXOCBPbz526TnRwOf4qCelSr9kynqUgERCQABYMOCBj64CR5sRJ+9a79SHA2iMteHEwAEuVYq4OMFCDIAVD8vlbO7N7mcBCIqQG1yyI6O7xNVn5dLAx8vPNeve/lMcWq6H3Bf6NbMAKeBDpC6cKiIw3CGZkTXST/NY+Q1wOv2shF1dR2dwqVuX/Kpiid3rtOHA9NMgY/+0C/Gxh/h+p7dv6naDwI+TmCMoO9a5eEHPj4Gm78sUuDlv1H0nzynXD8sUhf9KWMAN83zQhws+OUW+Pp6FCfT2d4oCvhCjBt6lzW2lxzMenyZAFIuyuC0XFvl3XBbPwQ9sU5pbXgh7c3Vaj4uritqhgYW7xSijK4flKLED9INmWX5CgNO/qCBL0zHR3ltCQWQwoIGPs5juUSUIaK/IQIKGE8AQEIq4NPXeHr3hpzf5+wSp48hcmpdF0YUndfnw0Tdh9fPCeCB28RvK+fr4so6jFimtwmA4+FF0zo+gALAhBPLJOp29AU08CkdW1en4vjQUfqNIuZ/3Qb0huuFG8QwkSpkC3xBbe378eu0wEc9xHKAiY+cCXwYgfgY8KEIC6gQ+GAhXjfXVysXG2gOvfUzaNaF9hjCwlQAZtlU+REFPrXSiO/ufl4xR20oPuj1+IyZEbkAt7Br4MqCH19QYI/c1sZyB/SUvx4DHt9FbYCgx3XO/L5RTv3yY9Al3WPolvwgwkkNfAACXBpiGRwf7iJY9oiIq3yhsfbqY6R8/XUwgQ+RCF3d9RN79WlBTKaNu5ccvVIQ8CHmwOHgooMIiggGIJAn4jd3+9xh5VLBNbZ9PV1xcO5FRCQM+OgXujS4Y1xRdEDfyH2d3vWTOsTL/OT2VQ/wcQIRzQSnoDz3b4ZoW7NqF66USJ8ZB2gFN4dxBr2Zjrzc0M3vEoPuMJ+Ajz4iphJM4ON/kHirCg7iR38IBtGE5A74pF+tLNLTHVWcDZZLuB1/2PXD4jjwFQt+fKvNXdbc7SXHyRefvO3ZbEjvshYGQCNxfPqEf8nT0uSNuukzXJ3D6VUJHHCsywG9oVh9hS81urVUgRcVMPMHDXzorNA18SUH+LDmlt25ruL1E3sUOFw6tNM9xjmtD6JNE/gAUcAENwz9FdfGAqyphCDgQ5cIl0hZdGOIPYAn4ijH8WnDhQfuFgAN4nJxbqae1hdxH4jIiE9wD3CjptiISAfooU+Cw9TB5Pg4xn1DH9oPikq8N5xw4Uy5NhEXHMCN62vjBsYK3G7genRAvDddSPTx4QA+PoL+CDgHibroUv1l9X/UBPTx6NZVoWXMPtInaKMlgnQp/n1DEXIPfLFOpcfCQZeX3R8Ob1+jgE+tzgLwLZjibiie0Xp8g9gScijBcdr4v8vDO45+xN9HvlgYMtRyUwr0HLcVQM/UT/nrZfpf6USWzFQvGC9ZUES3gpuAP2jg0wDld2ehPFwRYHJ292Z/dfe/Bj76AyABxIABQAUHg/sJxhOOIRIFAR8ikBaF8XNDPCfw4tBHuAt0PeiY0P8AJv6AczbGC7jTXasWqJeS+9d6PNo0xaZzezarDwL6SxPIg4APETnIV41j6MfM2QeVZQ+VUQg6mA7MGvi4bww12kcSBb8CbIOL1n0bSuBDbaHE/l9+UBwsefqFfpg890EwdXyoKpAogiKGDoAPf9Cg8xzz6+fO7/1ZfUQY71QRSQY1xFCEnAJff1+v4vKwWuKg2xVtSerD5RN7HI5voOvxvR2yvWQORV8WHfjz+uWkviQ03LsAAArVSURBVHEAcGttrHAWH2hvcJaTj3Wp40MBeoAK4lu6iAgV5OcXBHzoDPXDSvtwgQAVHIEJDmaHNfCh/4F7AjhQgAOCXBf3CcRTxGY4uCDgo5w2wACUgBTXA5zgEhQ9e3uVS41+IQBR070ClxjtvMsLy0vJy4x+jnsCQE2fM4A+yO0iCPgQkeFGg6Jq1+D4NG20jk//N4EP0Rj3ICzIB39a5oKzLqtTE/hwPA4ax0x1fLpNaIqTN+HAhiXuRwR1AuKqCXy6TlDqF3WDyviPAXz6Q+Q/Z/7n+dHjbB4fSD6HwCfKSokOqzvaonYNY7klf6h8Xprg+HzGjSWfvieLS94VvQKzs6/uazJr4r/F2XPjFcloQ/FhBsHzxw74u6X+A2yI+HC7OCjjwsJGQkPF6QVeNOQgYtWTP696zgJqgADgAGdyYsdapTfj/7Ft36uyiD7MGoAjvLBva5IxQTcI8CGmYRgAhAnoy3CRADgRjQmkzE7g5QXczID4BPdEiLa1qBkg6PEAB9wdCLQHZ6TBCuU/+jsd+A9nSdDAB7gT6Av3Z35w4FgQf/0hCPjQa8IVBUU+LCbHp9tLBXyUAdDhYBH5AJGgAPAh8uHuwjjqj4BZNhvgw7LN/WorPfTDn5AAl4Uu1AKfSd0s8zxg6LZ44dk8B87HH3g4t6yYK4i6WsfH6iz+DcXR8c2f/IbM+/B1mf3+q+Lo+OK7ow0zsKUSidkeskdZpLw9U6CnOD1mZdSrfTTQcY4E6GmrbHnpXc9N8mV3xMIFyv2DF4uvPwYEArosRFPt3gL4AEKP/rjgaYc/muNDT2cGxhfuTgesm3BfcIZ+4EM8xbBAAJThSOCk0BViFYYzguuEo3P0hyI4BePiogN14OIIJvChp0LPiZ7SDHBx6A79IQj4EMOhTVAcCPCh80O/yIcGQDY5UfN+4I4APGgf5jvIR8P8AJj1tQMzHyKAGF9JPcaUg8PHqAQttLUW0TdI32i2S95yfH6K8PD296lVRnDZgONhlkKQgeOPc0cU8OHOkvF6fO/+U0rGjzzHt2+7o4fydL+/X9qbKhXQe0CvV+v0snNQ9rRt/MHqmU45zHleKl4uHm5dXlvfTDGRprWOD5GHsuihTA4JkAAsEVfN4xr4jNtLynItXj6snXCXTHrXAUsuejJAEe4DPSVAg5ECsOS6ACP14ODQWXIMEVGLbLSFaARHhu8hoiT3yjXR8+FGQvsAOKI81+G8X/lOO0HAZ+rq9H2Tci3uBzFbB0ANvzXoooGYc1rUBcTpH1wkfYSr417Qo+LUqwPtAP6MhflRQQXAYgXMksEow3mMUEFBA19bU70CR67tD9ADx2HGCBpBxyBO2F9voMBHn+h/qshHblSKuvilweGwdwSOumoifntilQlNRB6cLcvnKo4v4ceXej2+fBB14fY62pM97aNtddLKrAy2iIy2OFPRevVuaUMDetAOZ1nlooGbRpYRfVtQ4CWFGwAkABlePH+AW4NrMFcMyQT4EKcBYAXCS2d6FhiAu0C8IsBhEuHSdODlRYQFkAiIykwbA3C0Qh7xGA6VlxfuDiBBTwiwwTHhOE0AwLgHwOJagKWbMumAD44U/SVT6KCFY2FOjC3uL1wDMRYDjw4AH9wZHCI+iLo/nGfFFACfj4oZWAIL7tsMerYO16BviMJaL2uWI6+Bz3/c/x+On/aI3EfQB8FfZ6DAxwcr3TOLA/roBD7pT+j5OpmeUqu4Powe/vDo9lVxOL4pohYinfWBaKuu3ld3weQ3lairdXzTxo0sx8deGv4Ad9LS8ELpNLs6BjcVzd92Lv4jbuGfx4tGX8KC9uPS5+E80r0o1IEroqzfNwuQg9NIFUyQoBzl/XX0qitwW+Y5c84n7fCx1ZbsoGvCzQLwmiOmPpZaM6BvhHsy29bnqQcnp+vr47zs1NH3qY/rlHvz00afM1PGhg8P3C8GnlSBlU4A1XSBduiL/pCkK8957hfAhJvMNPCMBelD/fXRRfr10v4ymf7PqXGDmzLFXTWDo6lCOtuSuT7Knjv0q5q5kW49vtnvm8aNkbHqbv8hefoXfQDsMGY4vnrGrIz46ieZDpQtZylgKTB0FMg58CXE3U7lztLRggPo88CvmlJAb/1eUq3HN2+SY9xA1B0pjm/tYtw1epJGBbGeqXmOXs9YYioF55TUiD1gKWApMOQUyD3wuVxft3Jgdri+SmlrZsWFZFEK8Du1f4csn50QdRdFnJkbWHXneqy6uRd1t61bEbiKMiMVba0VtfAAq62wJ65rzBjycbQNWgpYCmRBgREBPs314cPGGnTKtaWhXHFGYfd+9/oFWf15RBaXTBCAb+HUdzxT1hLGjdyIurM/+I9cPZtYoNN/3xrQHRGX6WgDX23F37b9bylgKTA4CowM8LlcX0yt1oIeDM4IkRerZ1hg1eJzh3fL0lmT1Fzd+Rg3EHVdB+a/D7sDM5bb/Ts3SXtr+H0yFQ9XHe260hufmTHQ1VbC6GGPWwpYCgyMAiMGfIi1WHPhhAAKOCPcW5i4DxeYKvT29kjZwztycOdG+XHJZ7Jk9mSZ8+HrQ+7Hx9LxrKO3bF5Eft+yTv68fkliAe4c5r3GOtvirissKIrrCiKudl0xS9q8pYClwEhRYASBT7F9rnsL+0to8IPzi7Z6tzEcKQJlc13uX/nrsYqycl2Jbwup3HWS9ZfZtG3LWgpYCgwdBUYW+LTI29cjiINMZXPAr1pa6l+o2Q5Ba/YNXfeHpiV8l3BZcfbLcECPVZVdvZ614g4NoW0rlgJDRIERBz76oXz74uCnxN6ORuXwC5C01D0VZj6YXvtD1PdBN8N9sysaXJ5aeKC1zhFvLegNmra2AUuB4aRAXgCf0vcxjxfw6+kS5vKydBXiLoDCzIfm+mcKANGZjXSAkwOMEckB5/aWaulUS0y1xjcJiltwLac30kNlr28pEEiBPAE+597goLTBg5WaMXIg+jK1zQHAcmmueyrNdc8URwi3hW4w1u34yMEV6kg7A4m6vkp7mVfcqTb/wVDBvhiAnQt4zdXKcos+D05VrbaCIWMQ+2UEjpI9aClgKTCkFMgr4FM963esvej2FPfX3eECIBwg4MOadoiX6AEBQcCwqfaJEcukqXYw0WmrubZMta3AruGF4u4AYGab4KoC4KGXhAuFC0wsMWUNGUP6lNrGLAWGmAL5B3yqg/1K7wfnpAAw1iU9CgDblAgMFwjwwAkCQoAhrjBElnMHnAYXnbZUmy3VDtC11qmltOAy8TV0OLw44DEjw3J5Q/xo2uYsBYaPAnkKfLrDPgDs6VbiJGIwwAO3hTiMGIpOEA7MG5vU8lcsgZVZNOrTXrRZgRzX4FroHrm2ckjujXN4iNRqm0zL5elRs6mlQL5TIM+BT5MvDoBxHSBzXh1RuFuJwwAR+rWhjkypo21EbiXK9sYccVaDnTJeWMDTo2RTS4HRQoFRAnwmOfvxf3FE4TgQDsSIkXUdrgVnZ8HOHAybtxQYlRQYhcAXRmc4r6GOYdeyxy0FLAVGMwXGEPCN5mGw924pYCmQSwpY4Mslte21LAUsBfKCAhb48mIY7E1YClgK5JICFvhySW17LUsBS4G8oIAFvrwYBnsTlgKWArmkgAW+XFLbXstSwFIgLyhggS8vhsHehKWApUAuKWCBL5fUtteyFLAUyAsKWODLi2GwN2EpYCmQSwr8P6cP5vQWmoNmAAAAAElFTkSuQmCC;imageBorder=#99CCFF;" vertex="1" parent="WIyWlLk6GJQsqaUBKTNV-1">
          <mxGeometry x="340" y="460" width="193.56" height="70" as="geometry" />
        </mxCell>
        <mxCell id="yNAFbRZhFlkog8Pj02Fz-50" value="本地url数据" style="shape=process;whiteSpace=wrap;html=1;backgroundOutline=1;rounded=0;glass=0;fontSize=14;fillColor=#cce5ff;strokeColor=#36393d;" vertex="1" parent="WIyWlLk6GJQsqaUBKTNV-1">
          <mxGeometry x="50" y="475" width="100" height="37" as="geometry" />
        </mxCell>
        <mxCell id="yNAFbRZhFlkog8Pj02Fz-48" value="分析结果" style="text;html=1;align=center;verticalAlign=middle;resizable=0;points=[];autosize=1;glass=0;rounded=0;fontSize=14;" vertex="1" parent="WIyWlLk6GJQsqaUBKTNV-1">
          <mxGeometry x="560" y="470" width="70" height="20" as="geometry" />
        </mxCell>
        <mxCell id="yNAFbRZhFlkog8Pj02Fz-52" style="edgeStyle=orthogonalEdgeStyle;rounded=0;orthogonalLoop=1;jettySize=auto;html=1;exitX=0.5;exitY=0;exitDx=0;exitDy=0;entryX=1;entryY=0.5;entryDx=0;entryDy=0;" edge="1" parent="WIyWlLk6GJQsqaUBKTNV-1" source="yNAFbRZhFlkog8Pj02Fz-42" target="yNAFbRZhFlkog8Pj02Fz-47">
          <mxGeometry relative="1" as="geometry">
            <Array as="points" />
            <mxPoint x="543.56" y="495" as="sourcePoint" />
            <mxPoint x="670" y="740" as="targetPoint" />
          </mxGeometry>
        </mxCell>
        <mxCell id="yNAFbRZhFlkog8Pj02Fz-56" style="edgeStyle=orthogonalEdgeStyle;rounded=0;orthogonalLoop=1;jettySize=auto;html=1;exitX=0;exitY=0.5;exitDx=0;exitDy=0;entryX=1;entryY=0.5;entryDx=0;entryDy=0;startArrow=classic;startFill=1;" edge="1" parent="WIyWlLk6GJQsqaUBKTNV-1" source="yNAFbRZhFlkog8Pj02Fz-47" target="yNAFbRZhFlkog8Pj02Fz-45">
          <mxGeometry relative="1" as="geometry">
            <Array as="points" />
            <mxPoint x="660" y="650" as="sourcePoint" />
            <mxPoint x="553.56" y="505" as="targetPoint" />
          </mxGeometry>
        </mxCell>
        <mxCell id="yNAFbRZhFlkog8Pj02Fz-57" value="360大数据" style="ellipse;shape=cloud;whiteSpace=wrap;html=1;rounded=0;glass=0;fontSize=14;" vertex="1" parent="WIyWlLk6GJQsqaUBKTNV-1">
          <mxGeometry x="590" y="540" width="120" height="60" as="geometry" />
        </mxCell>
        <mxCell id="yNAFbRZhFlkog8Pj02Fz-59" value="&lt;span style=&quot;font-size: 14px&quot;&gt;测试用户&lt;/span&gt;" style="rounded=1;whiteSpace=wrap;html=1;fontSize=12;glass=0;strokeWidth=1;shadow=0;fillColor=#fff2cc;strokeColor=#d6b656;gradientColor=#ffd966;" vertex="1" parent="WIyWlLk6GJQsqaUBKTNV-1">
          <mxGeometry x="600" y="830" width="90" height="40" as="geometry" />
        </mxCell>
        <mxCell id="yNAFbRZhFlkog8Pj02Fz-65" style="edgeStyle=none;rounded=0;orthogonalLoop=1;jettySize=auto;html=1;entryX=0;entryY=0.5;entryDx=0;entryDy=0;startArrow=classic;startFill=1;fontSize=14;exitX=1;exitY=0.5;exitDx=0;exitDy=0;exitPerimeter=0;" edge="1" parent="WIyWlLk6GJQsqaUBKTNV-1" source="yNAFbRZhFlkog8Pj02Fz-67" target="yNAFbRZhFlkog8Pj02Fz-59">
          <mxGeometry relative="1" as="geometry">
            <mxPoint x="445" y="990" as="sourcePoint" />
            <Array as="points">
              <mxPoint x="460" y="850" />
            </Array>
          </mxGeometry>
        </mxCell>
        <mxCell id="yNAFbRZhFlkog8Pj02Fz-60" value="EBox" style="shape=cube;whiteSpace=wrap;html=1;boundedLbl=1;backgroundOutline=1;darkOpacity=0.05;darkOpacity2=0.1;rounded=0;glass=0;fontSize=14;fillColor=#eeeeee;strokeColor=#36393d;" vertex="1" parent="WIyWlLk6GJQsqaUBKTNV-1">
          <mxGeometry x="350" y="820" width="110" height="80" as="geometry" />
        </mxCell>
        <mxCell id="yNAFbRZhFlkog8Pj02Fz-61" value="&lt;font style=&quot;font-size: 14px&quot;&gt;猎网&lt;/font&gt;" style="rounded=1;whiteSpace=wrap;html=1;fontSize=12;glass=0;strokeWidth=1;shadow=0;gradientColor=#97d077;fillColor=#d5e8d4;strokeColor=#82b366;" vertex="1" parent="WIyWlLk6GJQsqaUBKTNV-1">
          <mxGeometry x="120" y="830" width="85" height="40" as="geometry" />
        </mxCell>
        <mxCell id="yNAFbRZhFlkog8Pj02Fz-63" style="edgeStyle=orthogonalEdgeStyle;rounded=0;orthogonalLoop=1;jettySize=auto;html=1;exitX=0;exitY=0;exitDx=0;exitDy=30;entryX=1;entryY=0.5;entryDx=0;entryDy=0;startArrow=classic;startFill=1;exitPerimeter=0;" edge="1" parent="WIyWlLk6GJQsqaUBKTNV-1" source="yNAFbRZhFlkog8Pj02Fz-60" target="yNAFbRZhFlkog8Pj02Fz-61">
          <mxGeometry relative="1" as="geometry">
            <Array as="points" />
            <mxPoint x="360" y="515" as="sourcePoint" />
            <mxPoint x="295" y="515" as="targetPoint" />
          </mxGeometry>
        </mxCell>
        <mxCell id="yNAFbRZhFlkog8Pj02Fz-64" value="产品能力" style="text;html=1;align=center;verticalAlign=middle;resizable=0;points=[];autosize=1;fontSize=14;" vertex="1" parent="WIyWlLk6GJQsqaUBKTNV-1">
          <mxGeometry x="230" y="820" width="70" height="20" as="geometry" />
        </mxCell>
        <mxCell id="yNAFbRZhFlkog8Pj02Fz-67" value="" style="strokeWidth=1;html=1;shape=mxgraph.flowchart.sequential_data;whiteSpace=wrap;rounded=0;glass=0;fontSize=14;fillColor=none;dashed=1;perimeterSpacing=1;shadow=1;" vertex="1" parent="WIyWlLk6GJQsqaUBKTNV-1">
          <mxGeometry x="318.39" y="763.75" width="173.22" height="172.5" as="geometry" />
        </mxCell>
        <mxCell id="yNAFbRZhFlkog8Pj02Fz-68" value="&lt;span style=&quot;color: rgb(0, 0, 0); font-family: helvetica; font-size: 14px; font-style: normal; font-weight: 400; letter-spacing: normal; text-align: center; text-indent: 0px; text-transform: none; word-spacing: 0px; background-color: rgb(248, 249, 250); display: inline; float: none;&quot;&gt;本地服务器&lt;/span&gt;" style="text;whiteSpace=wrap;html=1;fontSize=14;" vertex="1" parent="WIyWlLk6GJQsqaUBKTNV-1">
          <mxGeometry x="410" y="932.5" width="100" height="30" as="geometry" />
        </mxCell>
        <mxCell id="yNAFbRZhFlkog8Pj02Fz-70" style="edgeStyle=none;rounded=0;orthogonalLoop=1;jettySize=auto;html=1;exitX=0.5;exitY=0;exitDx=0;exitDy=0;exitPerimeter=0;startArrow=classic;startFill=1;fontSize=14;" edge="1" parent="WIyWlLk6GJQsqaUBKTNV-1" source="yNAFbRZhFlkog8Pj02Fz-67" target="yNAFbRZhFlkog8Pj02Fz-67">
          <mxGeometry relative="1" as="geometry" />
        </mxCell>
        <mxCell id="yNAFbRZhFlkog8Pj02Fz-71" value="产品效果" style="text;html=1;align=center;verticalAlign=middle;resizable=0;points=[];autosize=1;fontSize=14;" vertex="1" parent="WIyWlLk6GJQsqaUBKTNV-1">
          <mxGeometry x="505" y="820" width="70" height="20" as="geometry" />
        </mxCell>
        <mxCell id="yNAFbRZhFlkog8Pj02Fz-73" value="" style="rounded=0;html=1;jettySize=auto;orthogonalLoop=1;fontSize=11;endArrow=block;endFill=0;endSize=8;strokeWidth=1;shadow=0;labelBackgroundColor=none;edgeStyle=orthogonalEdgeStyle;fillColor=#dae8fc;strokeColor=#6c8ebf;exitX=0.5;exitY=1;exitDx=0;exitDy=0;entryX=0.5;entryY=1;entryDx=0;entryDy=0;" edge="1" parent="WIyWlLk6GJQsqaUBKTNV-1" source="yNAFbRZhFlkog8Pj02Fz-59" target="yNAFbRZhFlkog8Pj02Fz-61">
          <mxGeometry relative="1" as="geometry">
            <mxPoint x="240" y="525" as="sourcePoint" />
            <mxPoint x="620" y="670" as="targetPoint" />
            <Array as="points">
              <mxPoint x="645" y="980" />
              <mxPoint x="163" y="980" />
            </Array>
          </mxGeometry>
        </mxCell>
        <mxCell id="yNAFbRZhFlkog8Pj02Fz-74" value="测试数据" style="edgeLabel;html=1;align=center;verticalAlign=middle;resizable=0;points=[];fontSize=14;" vertex="1" connectable="0" parent="yNAFbRZhFlkog8Pj02Fz-73">
          <mxGeometry x="-0.5678" y="-3" relative="1" as="geometry">
            <mxPoint x="213" y="11" as="offset" />
          </mxGeometry>
        </mxCell>
        <mxCell id="yNAFbRZhFlkog8Pj02Fz-75" value="测试结果反馈" style="text;html=1;align=center;verticalAlign=middle;resizable=0;points=[];autosize=1;glass=0;rounded=0;fontSize=14;" vertex="1" parent="WIyWlLk6GJQsqaUBKTNV-1">
          <mxGeometry x="360" y="990" width="100" height="20" as="geometry" />
        </mxCell>
      </root>
    </mxGraphModel>
  </diagram>
</mxfile>
